<?xml version="1.0" encoding="UTF-8" standalone="no"?>
<!-- Generator: Adobe Illustrator 13.0.0, SVG Export Plug-In . SVG Version: 6.00 Build 14576)  -->

<svg
   xmlns:dc="http://purl.org/dc/elements/1.1/"
   xmlns:cc="http://creativecommons.org/ns#"
   xmlns:rdf="http://www.w3.org/1999/02/22-rdf-syntax-ns#"
   xmlns:svg="http://www.w3.org/2000/svg"
   xmlns="http://www.w3.org/2000/svg"
   xmlns:xlink="http://www.w3.org/1999/xlink"
   xmlns:sodipodi="http://sodipodi.sourceforge.net/DTD/sodipodi-0.dtd"
   xmlns:inkscape="http://www.inkscape.org/namespaces/inkscape"
   version="1.1"
   id="Layer_1"
   x="0px"
   y="0px"
   width="952.81049"
   height="331.52875"
   viewBox="0 0 952.81046 331.52876"
   enable-background="new 0 0 793.322 340.809"
   xml:space="preserve"
   inkscape:version="0.91 r13725"
   sodipodi:docname="made-with-matrix.svg"
   inkscape:export-filename="/tmp/made-with-matrix.png"
   inkscape:export-xdpi="90"
   inkscape:export-ydpi="90"><metadata
     id="metadata55"><rdf:RDF><cc:Work
         rdf:about=""><dc:format>image/svg+xml</dc:format><dc:type
           rdf:resource="http://purl.org/dc/dcmitype/StillImage" /><dc:title></dc:title></cc:Work></rdf:RDF></metadata><defs
     id="defs53"><linearGradient
       inkscape:collect="always"
       id="linearGradient4893"><stop
         style="stop-color:#e0e0e0;stop-opacity:1"
         offset="0"
         id="stop4895" /><stop
         style="stop-color:#929292;stop-opacity:1"
         offset="1"
         id="stop4897" /></linearGradient><linearGradient
       inkscape:collect="always"
       xlink:href="#linearGradient4893"
       id="linearGradient4899"
       x1="153.78378"
       y1="-416.30826"
       x2="739.45184"
       y2="-82.663361"
       gradientUnits="userSpaceOnUse"
       gradientTransform="translate(-2.9858398e-6,-3.1054687e-6)" /></defs><sodipodi:namedview
     pagecolor="#ffffff"
     bordercolor="#666666"
     borderopacity="1"
     objecttolerance="10"
     gridtolerance="10"
     guidetolerance="10"
     inkscape:pageopacity="0"
     inkscape:pageshadow="2"
     inkscape:window-width="1366"
     inkscape:window-height="704"
     id="namedview51"
     showgrid="false"
     inkscape:zoom="0.77143957"
     inkscape:cx="509.93134"
     inkscape:cy="114.89479"
     inkscape:window-x="0"
     inkscape:window-y="27"
     inkscape:window-maximized="1"
     inkscape:current-layer="Layer_1"
     fit-margin-top="0"
     fit-margin-left="0"
     fit-margin-right="0"
     fit-margin-bottom="0"
     showguides="true" /><path
     style="opacity:1;fill:url(#linearGradient4899);fill-opacity:1;stroke:#7c7c7c;stroke-width:5;stroke-linecap:butt;stroke-linejoin:round;stroke-miterlimit:4;stroke-dasharray:none;stroke-opacity:1"
     d="m 72.59156,0 807.62737,0 c 40.21572,0 72.59156,32.375836 72.59156,72.59156 l 0,186.34563 c 0,40.21572 -32.37584,72.59156 -72.59156,72.59156 l -807.62737,0 C 32.375836,331.52875 0,299.15291 0,258.93719 L 0,72.59156 C 0,32.375836 32.375836,0 72.59156,0 Z"
     id="rect4610" /><g
     id="g4874"
     transform="translate(102.83405,420.74981)"><g
       id="g4814"
       transform="translate(3.2695313e-5,0)"><path
         d="m 296.67021,-357.00347 0,204.03543 14.68433,0 0,4.89541 -20.31936,0 0,-213.82562 20.31936,0 0,4.89478 -14.68433,0 z"
         id="path35"
         inkscape:connector-curvature="0" /><path
         d="m 353.24457,-292.3213 0,10.32538 0.29394,0 c 2.75403,-3.93042 6.07118,-6.9822 9.95716,-9.1458 3.88345,-2.1598 8.33509,-3.24414 13.34922,-3.24414 4.81733,0 9.21882,0.93642 13.20067,2.80291 3.98312,1.86966 7.00759,5.16205 9.0728,9.88288 2.2601,-3.34254 5.33283,-6.29338 9.21881,-8.84996 3.88345,-2.55532 8.48048,-3.83583 13.79172,-3.83583 4.032,0 7.76689,0.49265 11.21165,1.47605 3.43967,0.9834 6.38987,2.55658 8.84869,4.71955 2.45628,2.16488 4.37356,4.99192 5.75311,8.47984 1.37574,3.49428 2.0652,7.69579 2.0652,12.61405 l 0,51.0333 -20.9466,0 0,-43.21752 c 0,-2.55532 -0.0978,-4.96461 -0.29521,-7.22789 -0.19871,-2.26011 -0.73707,-4.22564 -1.62207,-5.89977 -0.88563,-1.67032 -2.19027,-2.99908 -3.90884,-3.98311 -1.72111,-0.97959 -4.0574,-1.47415 -7.00696,-1.47415 -2.94956,0 -5.33474,0.56883 -7.15425,1.69571 -1.82078,1.13259 -3.24541,2.60865 -4.27706,4.42562 -1.03228,1.82141 -1.7211,3.88535 -2.06456,6.19751 -0.346,2.30962 -0.51678,4.64591 -0.51678,7.00569 l 0,42.47855 -20.9447,0 0,-42.77376 c 0,-2.26137 -0.0514,-4.49926 -0.14602,-6.71048 -0.10031,-2.21376 -0.51677,-4.25357 -1.25575,-6.12323 -0.73771,-1.86649 -1.96744,-3.36731 -3.68791,-4.4999 -1.72111,-1.12688 -4.25293,-1.69571 -7.59611,-1.69571 -0.98467,0 -2.28741,0.22156 -3.90821,0.66533 -1.6227,0.4425 -3.19715,1.27988 -4.72019,2.50707 -1.5262,1.23036 -2.82767,3.00035 -3.90947,5.30934 -1.08244,2.31216 -1.6227,5.3341 -1.6227,9.07026 l 0,44.25044 -20.94407,0 0,-76.25823 19.76449,0 z"
         id="path37"
         inkscape:connector-curvature="0" /><path
         d="m 463.4285,-281.10965 c 2.1617,-3.24605 4.91637,-5.85024 8.26081,-7.81895 3.34191,-1.96616 7.10156,-3.36667 11.28212,-4.20341 4.17865,-0.83485 8.38334,-1.25449 12.61151,-1.25449 3.83583,0 7.71864,0.27172 11.65224,0.81072 3.93296,0.54281 7.5231,1.60112 10.76851,3.1724 3.24478,1.57255 5.89913,3.76219 7.96497,6.56319 2.0652,2.80228 3.09748,6.51495 3.09748,11.13737 l 0,39.675 c 0,3.44602 0.19681,6.73651 0.59106,9.88288 0.39044,3.14827 1.0799,5.50805 2.06393,7.0806 l -21.23927,0 c -0.39425,-1.18084 -0.71486,-2.3839 -0.95928,-3.61426 -0.24759,-1.22719 -0.41964,-2.48104 -0.51614,-3.76028 -3.34381,3.44221 -7.27868,5.85151 -11.79889,7.22853 -4.52465,1.3732 -9.14644,2.06393 -13.86663,2.06393 -3.63966,0 -7.03236,-0.44313 -10.17873,-1.32686 -3.14764,-0.88563 -5.89976,-2.26138 -8.25954,-4.13295 -2.36041,-1.86522 -4.20405,-4.22563 -5.53154,-7.07679 -1.3275,-2.85116 -1.9922,-6.24703 -1.9922,-10.17873 0,-4.3253 0.7612,-7.89132 2.28804,-10.69106 1.52303,-2.80418 3.48856,-5.04016 5.90103,-6.71365 2.40803,-1.67095 5.16079,-2.9248 8.25955,-3.76028 3.09685,-0.83484 6.21846,-1.497 9.36546,-1.99156 3.14701,-0.49011 6.24386,-0.88436 9.2931,-1.17894 3.04797,-0.29584 5.75311,-0.73898 8.11289,-1.32876 2.36041,-0.58979 4.2269,-1.44875 5.60518,-2.58071 1.37448,-1.13069 2.01378,-2.77752 1.91728,-4.94239 0,-2.26011 -0.36821,-4.05613 -1.10592,-5.38299 -0.73708,-1.32686 -1.72111,-2.36105 -2.94957,-3.09812 -1.22972,-0.73707 -2.65562,-1.22909 -4.27706,-1.47605 -1.62333,-0.24252 -3.37047,-0.36822 -5.23633,-0.36822 -4.1304,0 -7.37518,0.88563 -9.73559,2.65562 -2.35914,1.76999 -3.7387,4.72146 -4.13041,8.84996 l -20.94469,0 c 0.2933,-4.91509 1.52049,-8.99788 3.68663,-12.24075 z m 41.37326,29.57373 c -1.32686,0.44186 -2.7534,0.80944 -4.27643,1.10529 -1.52493,0.29521 -3.12224,0.54154 -4.79383,0.73707 -1.67286,0.19872 -3.34445,0.44314 -5.01477,0.73835 -1.57445,0.29267 -3.12288,0.68946 -4.64528,1.17893 -1.5262,0.49456 -2.8537,1.15672 -3.98311,1.9922 -1.1326,0.83611 -2.04172,1.89506 -2.72991,3.17049 -0.68882,1.27861 -1.03228,2.90195 -1.03228,4.86812 0,1.86649 0.34346,3.44221 1.03228,4.71765 0.68819,1.28051 1.62398,2.28804 2.80355,3.02511 1.17957,0.73707 2.55532,1.25449 4.13104,1.54779 1.57128,0.29585 3.19399,0.44314 4.86621,0.44314 4.12977,0 7.32439,-0.68692 9.5883,-2.06521 2.26074,-1.37511 3.93106,-3.02321 5.01477,-4.94239 1.08053,-1.91665 1.74523,-3.85488 1.99156,-5.82421 0.24379,-1.96617 0.36822,-3.53999 0.36822,-4.71956 l 0,-7.81895 c -0.88627,0.78913 -1.99219,1.40304 -3.32032,1.84618 z"
         id="path39"
         inkscape:connector-curvature="0" /><path
         d="m 584.23048,-292.3213 0,14.01266 -15.33887,0 0,37.76089 c 0,3.53808 0.58915,5.89913 1.76999,7.07807 1.1783,1.1802 3.53998,1.76999 7.07997,1.76999 1.1802,0 2.30962,-0.0482 3.39206,-0.14729 1.08117,-0.0965 2.11409,-0.24633 3.09685,-0.44186 l 0,16.22514 c -1.76999,0.29521 -3.73742,0.49075 -5.89976,0.59105 -2.16297,0.0946 -4.27706,0.14602 -6.34226,0.14602 -3.24478,0 -6.31877,-0.2222 -9.21882,-0.66533 -2.90195,-0.44123 -5.4579,-1.29956 -7.66975,-2.57944 -2.21313,-1.27671 -3.959,-3.09812 -5.23634,-5.4579 -1.27988,-2.35788 -1.91791,-5.45663 -1.91791,-9.29373 l 0,-44.98561 -12.68452,0 0,-14.01266 12.68452,0 0,-22.86261 20.94533,0 0,22.86261 15.33951,0 z"
         id="path41"
         inkscape:connector-curvature="0" /><path
         d="m 614.17243,-292.3213 0,14.16058 0.29521,0 c 0.98149,-2.36168 2.30835,-4.54751 3.98185,-6.5651 1.67222,-2.01378 3.58823,-3.73616 5.75184,-5.16205 2.1617,-1.42336 4.47386,-2.52992 6.93458,-3.31906 2.45565,-0.78532 5.01414,-1.1802 7.66976,-1.1802 1.37638,0 2.89877,0.24759 4.57227,0.73834 l 0,19.47119 c -0.98467,-0.19808 -2.16488,-0.37076 -3.53999,-0.51678 -1.37764,-0.14792 -2.7045,-0.2222 -3.98311,-0.2222 -3.8352,0 -7.07997,0.64121 -9.73369,1.91791 -2.65499,1.27861 -4.7932,3.02258 -6.41654,5.2357 -1.62207,2.21376 -2.78006,4.7932 -3.46761,7.74403 -0.68756,2.94893 -1.03165,6.14673 -1.03165,9.58768 l 0,34.36692 -20.9447,0 0,-76.25696 19.91178,0 z"
         id="path43"
         inkscape:connector-curvature="0" /><path
         d="m 652.22727,-304.12209 0,-17.25743 20.9466,0 0,17.25743 -20.9466,0 z m 20.9466,11.80079 0,76.2576 -20.9466,0 0,-76.2576 20.9466,0 z"
         id="path45"
         inkscape:connector-curvature="0" /><path
         d="m 684.08776,-292.3213 23.89426,0 13.4235,19.91242 13.27558,-19.91242 23.15719,0 -25.07447,35.6957 28.17323,40.56253 -23.89617,0 -15.93057,-24.04218 -15.9312,24.04218 -23.45049,0 27.43425,-40.11877 -25.07511,-36.13946 z"
         id="path47"
         inkscape:connector-curvature="0" /><path
         d="m 786.50861,-152.96804 0,-204.03543 -14.68433,0 0,-4.89478 20.32063,0 0,213.82562 -20.32063,0 0,-4.89541 14.68433,0 z"
         id="path49"
         inkscape:connector-curvature="0" /></g><g
       transform="translate(-20,-4.69175)"
       id="g4864"><g
         style="font-style:normal;font-variant:normal;font-weight:normal;font-stretch:normal;font-size:87.67627716px;line-height:125%;font-family:'Helvetica Neue';-inkscape-font-specification:'Helvetica Neue';letter-spacing:0px;word-spacing:0px;fill:#000000;fill-opacity:1;stroke:none;stroke-width:1px;stroke-linecap:butt;stroke-linejoin:miter;stroke-opacity:1"
         id="text4183"><path
           d="m 5.3542869,-309.93429 0,45.32864 7.4524831,0 0,-28.23176 q 0,-1.31515 0.613734,-3.24403 0.701411,-2.01655 2.104231,-3.85775 1.490497,-1.8412 3.77008,-3.15635 2.367259,-1.31514 5.611282,-1.31514 2.542612,0 4.120785,0.78908 1.665849,0.70142 2.630288,2.10424 0.964439,1.31514 1.315144,3.15634 0.438382,1.8412 0.438382,4.03311 l 0,29.72226 7.452483,0 0,-28.23176 q 0,-5.26058 3.156346,-8.41693 3.156346,-3.15634 8.679952,-3.15634 2.717964,0 4.383813,0.78908 1.753526,0.78909 2.717965,2.19191 0.964439,1.31515 1.315144,3.15635 0.350705,1.8412 0.350705,3.94543 l 0,29.72226 7.452484,0 0,-33.22931 q 0,-3.50705 -1.139792,-5.96199 -1.052115,-2.54261 -3.068669,-4.12078 -1.928879,-1.57818 -4.734519,-2.27959 -2.717965,-0.78908 -6.13734,-0.78908 -4.47149,0 -8.24157,2.01655 -3.682404,2.01656 -5.961987,5.69896 -1.40282,-4.20846 -4.822195,-5.96199 -3.419375,-1.75352 -7.627836,-1.75352 -9.556714,0 -14.641938,7.71551 l -0.175353,0 0,-6.6634 -7.0141021,0 z"
           style=""
           id="path4988" /><path
           d="m 120.51434,-264.781 0,-5.78664 q -1.31514,0.43838 -2.27958,0.43838 -1.75353,0 -2.10423,-1.22747 -0.26303,-1.22746 -0.26303,-3.85775 l 0,-23.32189 q 0,-3.94543 -1.4905,-6.40037 -1.4905,-2.45494 -3.94543,-3.77008 -2.45494,-1.40282 -5.52361,-1.8412 -2.98099,-0.43838 -6.04966,-0.43838 -3.77008,0 -7.189455,0.78908 -3.419375,0.78909 -6.049663,2.63029 -2.630289,1.75353 -4.208462,4.64685 -1.578173,2.89331 -1.753525,7.10177 l 7.452483,0 q 0.263029,-4.99754 3.419375,-6.75107 3.156346,-1.8412 7.890865,-1.8412 1.753522,0 3.507052,0.26303 1.8412,0.26303 3.24402,1.05211 1.4905,0.78909 2.36726,2.27959 0.96444,1.49049 0.96444,3.94543 0,2.10423 -1.22747,3.24402 -1.22747,1.05212 -3.3317,1.66585 -2.10423,0.52606 -4.909868,0.87676 -2.717964,0.26303 -5.786634,0.87677 -2.893317,0.52605 -5.698958,1.31514 -2.717965,0.78909 -4.909872,2.36726 -2.10423,1.4905 -3.419374,3.94543 -1.315145,2.45494 -1.315145,6.31269 0,3.41938 1.139792,5.87431 1.227468,2.36726 3.244022,3.94544 2.104231,1.49049 4.822195,2.10423 2.717965,0.70141 5.786635,0.70141 4.734519,0 8.767627,-1.57818 4.12079,-1.66585 7.18946,-5.34825 0,3.6824 1.66584,5.34825 1.75353,1.57818 4.64685,1.57818 3.41937,0 5.34825,-1.13979 z m -12.09933,-23.23422 0,7.62784 q 0,1.57817 -0.78908,3.41937 -0.78909,1.75353 -2.45494,3.3317 -1.66585,1.4905 -4.29614,2.54261 -2.630284,0.96444 -6.312688,0.96444 -1.665849,0 -3.331698,-0.3507 -1.578173,-0.35071 -2.805641,-1.13979 -1.139792,-0.78909 -1.928878,-2.01656 -0.701411,-1.31514 -0.701411,-3.15634 0,-2.80565 1.227468,-4.38382 1.315144,-1.66585 3.331699,-2.54261 2.016554,-0.87676 4.559166,-1.22747 2.542612,-0.43838 4.997548,-0.70141 2.542615,-0.3507 4.822195,-0.78908 2.27958,-0.52606 3.6824,-1.57818 z"
           style=""
           id="path4990" /><path
           d="m 132.88629,-286.87543 q 0,-3.33169 0.70141,-6.48804 0.70141,-3.15635 2.27958,-5.61128 1.57817,-2.45494 4.20846,-3.94543 2.63029,-1.4905 6.40037,-1.4905 3.85775,0 6.57572,1.4905 2.71796,1.40282 4.38381,3.77007 1.75353,2.36726 2.54262,5.52361 0.78908,3.06867 0.78908,6.40037 0,3.15634 -0.78908,6.22501 -0.70142,3.06867 -2.36726,5.52361 -1.66585,2.36726 -4.29614,3.85776 -2.63029,1.49049 -6.40037,1.49049 -3.59473,0 -6.31269,-1.40282 -2.63029,-1.40282 -4.38382,-3.77008 -1.66585,-2.36726 -2.54261,-5.34825 -0.78908,-3.06867 -0.78908,-6.22502 z m 35.07051,22.26978 0,-62.60086 -7.45249,0 0,23.32189 -0.17535,0 q -1.22747,-2.01656 -3.06867,-3.3317 -1.75353,-1.40282 -3.77008,-2.19191 -2.01655,-0.87676 -4.03311,-1.22747 -2.01655,-0.3507 -3.77008,-0.3507 -5.1729,0 -9.11833,1.92888 -3.85776,1.8412 -6.48805,5.08522 -2.54261,3.15635 -3.85775,7.45248 -1.22747,4.29614 -1.22747,9.11834 0,4.82219 1.31514,9.11833 1.31515,4.29614 3.85776,7.54016 2.63029,3.24402 6.48805,5.1729 3.94543,1.92888 9.206,1.92888 4.73452,0 8.67996,-1.66585 3.94543,-1.66585 5.78663,-5.43593 l 0.17535,0 0,6.13734 7.45249,0 z"
           style=""
           id="path4992" /><path
           d="m 210.98392,-291.60995 -26.03985,0 q 0.17535,-2.63028 1.13979,-4.90987 0.96444,-2.36726 2.63029,-4.12078 1.66585,-1.75353 3.94543,-2.71797 2.36726,-1.05211 5.26058,-1.05211 2.80564,0 5.08522,1.05211 2.36726,0.96444 4.03311,2.71797 1.75353,1.66585 2.71797,4.03311 1.05211,2.36726 1.22746,4.99754 z m 7.18946,12.62539 -7.36481,0 q -0.96444,4.47149 -4.03311,6.6634 -2.98099,2.1919 -7.71551,2.1919 -3.6824,0 -6.40037,-1.22747 -2.71796,-1.22746 -4.47149,-3.24402 -1.75352,-2.10423 -2.54261,-4.73452 -0.78909,-2.71796 -0.70141,-5.69895 l 33.93072,0 q 0.17535,-4.12079 -0.78909,-8.67996 -0.87676,-4.55916 -3.3317,-8.41692 -2.36725,-3.85775 -6.40036,-6.31269 -3.94544,-2.54261 -9.9951,-2.54261 -4.64684,0 -8.59227,1.75352 -3.85776,1.75353 -6.75108,4.90987 -2.80564,3.15635 -4.38381,7.45249 -1.57817,4.29614 -1.57817,9.46904 0.17535,5.1729 1.49049,9.55671 1.40282,4.38381 4.12079,7.54016 2.71796,3.15635 6.66339,4.90987 4.03311,1.75353 9.46904,1.75353 7.71551,0 12.80074,-3.85776 5.08522,-3.85776 6.57572,-11.48559 z"
           style=""
           id="path4994" /></g><g
         style="font-style:normal;font-weight:normal;font-size:87.67627716px;line-height:125%;font-family:sans-serif;letter-spacing:0px;word-spacing:0px;fill:#000000;fill-opacity:1;stroke:none;stroke-width:1px;stroke-linecap:butt;stroke-linejoin:miter;stroke-opacity:1"
         id="text4187"><path
           d="m 83.548987,-173.38087 14.466585,-45.32864 -7.715512,0 -10.170448,37.08707 -0.175353,0 -9.469038,-37.08707 -8.153893,0 -9.118333,37.08707 -0.175353,0 -10.258124,-37.08707 -8.24157,0 14.554262,45.32864 8.066217,0 9.118333,-36.03495 0.175353,0 9.206009,36.03495 7.890865,0 z"
           style="font-style:normal;font-variant:normal;font-weight:normal;font-stretch:normal;font-family:'Helvetica Neue';-inkscape-font-specification:'Helvetica Neue'"
           id="path4979" /><path
           d="m 112.99177,-226.8634 0,-9.11834 -7.45248,0 0,9.11834 7.45248,0 z m -7.45248,8.15389 0,45.32864 7.45248,0 0,-45.32864 -7.45248,0 z"
           style="font-style:normal;font-variant:normal;font-weight:normal;font-stretch:normal;font-family:'Helvetica Neue';-inkscape-font-specification:'Helvetica Neue'"
           id="path4981" /><path
           d="m 134.96839,-218.70951 0,-13.58982 -7.45249,0 0,13.58982 -7.71551,0 0,6.57572 7.71551,0 0,28.8455 q 0,3.15634 0.61374,5.08522 0.61373,1.92888 1.8412,2.98099 1.31514,1.05212 3.3317,1.4905 2.10423,0.35071 4.99754,0.35071 l 5.69896,0 0,-6.57573 -3.41937,0 q -1.75353,0 -2.89332,-0.0877 -1.05212,-0.17535 -1.66585,-0.61374 -0.61373,-0.43838 -0.87676,-1.22746 -0.17535,-0.78909 -0.17535,-2.10423 l 0,-28.14409 9.03065,0 0,-6.57572 -9.03065,0 z"
           style="font-style:normal;font-variant:normal;font-weight:normal;font-stretch:normal;font-family:'Helvetica Neue';-inkscape-font-specification:'Helvetica Neue'"
           id="path4983" /><path
           d="m 152.19266,-235.98174 0,62.60087 7.45248,0 0,-25.60148 q 0,-3.06867 0.78909,-5.61128 0.87676,-2.63029 2.54261,-4.55917 1.66585,-1.92887 4.12079,-2.98099 2.54261,-1.05211 5.96198,-1.05211 4.29614,0 6.75108,2.45493 2.45493,2.45494 2.45493,6.6634 l 0,30.6867 7.45249,0 0,-29.80994 q 0,-3.6824 -0.78909,-6.6634 -0.70141,-3.06867 -2.54261,-5.26057 -1.8412,-2.19191 -4.8222,-3.41938 -2.98099,-1.22747 -7.45248,-1.22747 -2.01655,0 -4.20846,0.43839 -2.10423,0.43838 -4.12079,1.40282 -1.92887,0.87676 -3.50705,2.36726 -1.57817,1.40282 -2.45493,3.50705 l -0.17536,0 0,-23.93563 -7.45248,0 z"
           style="font-style:normal;font-variant:normal;font-weight:normal;font-stretch:normal;font-family:'Helvetica Neue';-inkscape-font-specification:'Helvetica Neue'"
           id="path4985" /></g><path
         inkscape:connector-curvature="0"
         id="path35-4"
         d="m -19.367496,-352.31172 0,204.03543 14.6843304,0 0,4.89541 -20.3193604,0 0,-213.82562 20.3193604,0 0,4.89478 -14.6843304,0 z" /><path
         inkscape:connector-curvature="0"
         id="path49-9"
         d="m 243.62228,-148.27629 0,-204.03543 -14.68433,0 0,-4.89478 20.32063,0 0,213.82562 -20.32063,0 0,-4.89541 14.68433,0 z" /></g><circle
       r="12.962778"
       cy="-254.98544"
       cx="260.14688"
       id="path4872"
       style="opacity:1;fill:#000000;fill-opacity:1;stroke:none;stroke-width:5;stroke-linecap:butt;stroke-linejoin:round;stroke-miterlimit:4;stroke-dasharray:none;stroke-opacity:1" /></g></svg>